<svg width="13" height="24" viewBox="0 0 13 24" fill="none" xmlns="http://www.w3.org/2000/svg">
<path d="M0.272106 0.27318C0.0976614 0.451775 0 0.691525 0 0.94118C0 1.19083 0.0976614 1.43058 0.272106 1.60918L10.0181 11.6072L0.272106 21.6032C0.0976614 21.7818 0 22.0215 0 22.2712C0 22.5208 0.0976614 22.7606 0.272106 22.9392C0.356898 23.0263 0.458278 23.0955 0.57026 23.1427C0.682242 23.19 0.802558 23.2143 0.924106 23.2143C1.04565 23.2143 1.16597 23.19 1.27795 23.1427C1.38993 23.0955 1.49131 23.0263 1.57611 22.9392L11.9401 12.3052C12.1221 12.1184 12.224 11.868 12.224 11.6072C12.224 11.3464 12.1221 11.0959 11.9401 10.9092L1.57611 0.27518C1.49131 0.188093 1.38993 0.118876 1.27795 0.0716128C1.16597 0.02435 1.04565 0 0.924106 0C0.802558 0 0.682242 0.02435 0.57026 0.0716128C0.458278 0.118876 0.356898 0.188093 0.272106 0.27518V0.27318Z" fill="white"/>
</svg>
