<svg width="15" height="20" viewBox="0 0 15 20" fill="none" xmlns="http://www.w3.org/2000/svg">
<path d="M3.88792 0.102308L3.02872 0.361508C2.26239 0.592349 1.57797 1.03734 1.05604 1.64409C0.53412 2.25084 0.196424 2.99408 0.0827165 3.78631C-0.273684 6.26791 0.523116 9.16951 2.44432 12.4971C4.36072 15.8163 6.47032 17.9547 8.79232 18.8907C9.53839 19.1914 10.3551 19.2715 11.1454 19.1215C11.9357 18.9716 12.6663 18.5978 13.2503 18.0447L13.9019 17.4279C14.3241 17.028 14.5867 16.4885 14.641 15.9096C14.6953 15.3306 14.5376 14.7517 14.1971 14.2803L12.5699 12.0243C12.3499 11.7197 12.0401 11.4916 11.684 11.372C11.3278 11.2523 10.9432 11.2471 10.5839 11.3571L8.12272 12.1095L8.05912 12.1215C7.78792 12.1611 7.16272 11.5743 6.38272 10.2231C5.56672 8.80951 5.39632 7.98271 5.62192 7.76911L6.87472 6.60151C7.33221 6.17472 7.64463 5.61543 7.76816 5.00209C7.89169 4.38875 7.82013 3.75212 7.56352 3.18151L6.77152 1.41631C6.53259 0.884594 6.10831 0.458012 5.5779 0.216213C5.04748 -0.025587 4.4472 -0.066075 3.88912 0.102308H3.88792ZM5.67592 1.90831L6.46912 3.67351C6.62336 4.01579 6.66649 4.39779 6.59245 4.76584C6.51841 5.13389 6.33092 5.4695 6.05632 5.72551L4.80112 6.89431C3.99712 7.65391 4.26352 8.95351 5.34232 10.8231C6.35872 12.5823 7.28512 13.4511 8.27992 13.2999L8.42872 13.2687L10.9343 12.5043C11.0541 12.4675 11.1824 12.4691 11.3012 12.509C11.42 12.5488 11.5233 12.6248 11.5967 12.7263L13.2239 14.9823C13.3943 15.218 13.4733 15.5077 13.4461 15.7973C13.419 16.0869 13.2876 16.3567 13.0763 16.5567L12.4247 17.1735C12.0075 17.5683 11.4858 17.8351 10.9214 17.9421C10.3571 18.0491 9.77387 17.9918 9.24112 17.7771C7.20352 16.9563 5.27752 15.0039 3.48352 11.8971C1.68592 8.78311 0.958717 6.13471 1.27072 3.95671C1.35189 3.39068 1.59313 2.85964 1.96604 2.42614C2.33894 1.99264 2.82797 1.67475 3.37552 1.50991L4.23592 1.25071C4.51487 1.16689 4.81478 1.18738 5.07973 1.30838C5.34468 1.42937 5.55658 1.6426 5.67592 1.90831V1.90831Z" fill="white"/>
</svg>
